<svg id="Layer_1" enable-background="new 0 0 512.122 512.122" height="512" viewBox="0 0 512.122 512.122" width="512" xmlns="http://www.w3.org/2000/svg"><g><g clip-rule="evenodd" fill="#e2c4ff" fill-rule="evenodd"><path d="m140.721 250.477c20.908-38.082-3.534-65.598-53.266-65.838-11.538 50.698-2.522 108.283 25.063 155.846 38.549-30.368 7.203-51.759 28.203-90.008z"/><path d="m179.27 72.625c18.356 66.169 52.058 83.892 94.291 88.605 42.699 4.765 80.625 27.375 82.5 71.625 1.874 44.25 30.94 68.903 61.22 68.903 52.752-153.238-65.409-289.626-238.011-229.133z"/></g><g fill="#020288"><path d="m511.981 195.13c-4.587-36.085-22.667-67.403-49.604-85.923-18.855-12.964-40.328-18.519-62.83-16.375 5.521-34.548-2.625-64.091-14.434-79.475-15.597-20.125-37.408-16.457-47.026 3.966-3.899 8.081-6.298 18.396-8.837 29.317-.979 4.209-1.98 8.506-3.085 12.763-41.247-14.505-98.959-14.505-140.206 0-1.106-4.258-2.106-8.554-3.085-12.764-4.444-19.835-10.291-46.623-32.921-46.517-31.495 1.756-44.021 53.485-37.375 92.709-59.016-5.881-105.591 43.735-112.437 102.299-.668 5.255 2.876 10.119 8.084 11.091 20.868 3.806 46.646 1.252 66.072-4.935-7.784 59.26 9.669 123.873 48.864 172.247-6.848 9.726-10.298 21.573-10.298 35.487 0 58.778 61.562 103.102 143.198 103.102s143.199-44.324 143.199-103.102c0-13.914-3.449-25.762-10.298-35.487 39.195-48.373 56.647-112.986 48.864-172.246 19.422 6.186 45.205 8.741 66.071 4.934 5.207-.973 8.752-5.836 8.084-11.091zm-163.251-143.961c2.312-8.969 6.277-31.244 13.441-31.048 1.348 0 4.01 1.418 7.076 5.413 9.059 11.802 14.8 36.485 10.537 64.008-5.755-4.872-11.889-9.357-18.398-13.439-5.312-3.33-10.832-6.358-16.551-9.089 1.45-5.346 2.688-10.659 3.895-15.845zm-205.856-25.634c5.233-6.357 8.951-8.289 13.148.479 2.935 6.081 5.089 15.346 7.369 25.155 1.206 5.186 2.445 10.499 3.895 15.846-5.719 2.731-11.239 5.759-16.551 9.089-6.51 4.081-12.643 8.566-18.398 13.439-4.262-27.524 1.478-52.205 10.537-64.008zm-121.199 162.238c5.616-25.949 19.919-48.691 39.401-62.085 14.677-10.091 31.419-14.485 49.015-12.979-14.678 18.723-25.434 41.76-31.316 65.148-11.584 6.466-36.167 11.357-57.1 9.916zm322.93 279.957c-23.02 15.729-54.465 24.392-88.544 24.392-55.319.398-121.333-25.851-123.199-83.102.001-42.236 43.299-50.242 123.199-50.242s123.199 8.007 123.199 50.243c0 22.589-12.308 43.44-34.655 58.709zm30.019-108.28c-32.028-20.864-75.066-19.938-118.563-20.674-35.066.001-71.137 1.242-97.426 10.245-8.118 2.781-15.166 6.261-21.137 10.429-46.289-58.238-58.516-141.344-29.414-204.965 47.292-114.953 248.682-114.924 295.954 0 29.102 63.621 16.874 146.727-29.414 204.965zm58.722-181.593c-5.881-23.385-16.638-46.425-31.314-65.146 17.596-1.505 34.336 2.886 49.013 12.977 19.482 13.394 33.785 36.135 39.401 62.085-20.927 1.437-45.516-3.451-57.1-9.916z"/><path d="m195.91 418.828c-5.435 0-10.794 1.436-15.5 4.153-4.783 2.762-6.422 8.877-3.66 13.661 2.762 4.782 8.878 6.422 13.66 3.66 5.073-3.053 12.157-1.149 15.027 4.027 1.853 3.208 5.214 5.001 8.67 5.001 1.696 0 3.416-.432 4.991-1.341 4.782-2.762 6.421-8.878 3.659-13.661-5.519-9.561-15.807-15.5-26.847-15.5z"/><path d="m331.711 422.981c-14.295-8.605-34.259-3.24-42.347 11.347-2.762 4.783-1.123 10.899 3.66 13.66 1.575.909 3.294 1.341 4.99 1.341 3.456 0 6.818-1.794 8.67-5.002 2.87-5.176 9.954-7.079 15.026-4.026 4.781 2.762 10.898 1.122 13.66-3.66 2.763-4.783 1.124-10.898-3.659-13.66z"/><path d="m205.065 279.105h-.008c-5.522 0-9.996 4.477-9.996 10 .528 13.263 19.479 13.263 20.004 0 0-5.523-4.478-10-10-10z"/><path d="m307.065 279.105h-.008c-5.522 0-9.996 4.477-9.996 10 .528 13.263 19.479 13.263 20.004 0 0-5.523-4.478-10-10-10z"/></g></g></svg>