<svg id="Capa_1" enable-background="new 0 0 512 512" height="512" viewBox="0 0 512 512" width="512" xmlns="http://www.w3.org/2000/svg"><g><g><ellipse clip-rule="evenodd" cx="332.729" cy="304.615" fill="#fff59b" fill-rule="evenodd" rx="102.839" ry="102.95"/></g><g fill="#020288"><path d="m447.522 110.329c-17.834-25.772-37.688-47.751-57.415-63.561-20.981-16.815-40.823-25.703-57.378-25.703-21.363 0-48.893 16.227-76.218 43.665-27.997-28.224-55.208-43.665-77.24-43.665-31.398 0-76.118 35.026-113.929 89.233-41.526 59.533-65.342 128.063-65.342 188.019 0 48.551 19.018 97.332 52.176 133.834 34.435 37.907 79.572 58.784 127.095 58.784 26.675 0 52.433-6.515 76.629-19.338 23.845 12.657 49.954 19.338 76.829 19.338 47.523 0 92.66-20.876 127.095-58.784 33.158-36.502 52.176-85.283 52.176-133.834 0-60.253-23.501-128.772-64.478-187.988zm-268.251 360.606c-84.845 0-159.271-80.663-159.271-172.618 0-55.961 22.505-120.321 61.746-176.577 33.133-47.5 73.237-80.675 97.525-80.675 16.338 0 39.786 14.209 63.605 38.324-8.2 9.401-16.286 19.74-24.076 30.909-41.525 59.533-65.342 128.063-65.342 188.019 0 48.551 19.018 97.332 52.176 133.834 9.321 10.26 19.431 19.261 30.155 26.95-18.095 7.852-37.043 11.834-56.518 11.834zm153.458 0c-84.845 0-159.271-80.663-159.271-172.618 0-55.961 22.505-120.321 61.746-176.577 33.133-47.5 73.236-80.675 97.525-80.675 50.065 0 159.271 129.14 159.271 257.252 0 91.955-74.426 172.618-159.271 172.618z"/><path d="m332.729 352.72c-26.49 0-48.042-21.58-48.042-48.105 0-5.523-4.477-10-10-10s-10 4.477-10 10c0 37.553 30.523 68.105 68.042 68.105 5.523 0 10-4.477 10-10s-4.477-10-10-10z"/></g></g></svg>