<svg id="Capa_1" enable-background="new 0 0 512 512" height="512" viewBox="0 0 512 512" width="512" xmlns="http://www.w3.org/2000/svg"><g><g><g><path d="m242.677 256c0-54.083-28.307-101.528-70.857-128.22-104.864 13.296-161.82 128.22-161.82 128.22s56.956 114.924 161.82 128.22c42.55-26.692 70.857-74.137 70.857-128.22z" fill="#b2f0fb"/></g></g><g fill="#020288"><path d="m490.109 239.107c14.117-15.396 21.891-35.404 21.891-56.339v-18.44c0-5.522-4.478-10-10-10h-34.869c-33.207 0-62.736 19.778-75.841 49.456-8.491-6.679-17.837-13.686-27.885-20.714-11.145-7.795-22.124-14.911-32.927-21.346l18.113-29.759c1.562-2.566 1.888-5.699.887-8.532-1.002-2.832-3.224-5.064-6.052-6.079l-6.805-2.442c-44.943-16.122-93.22-18.7-139.61-7.458-7.923 1.921-15.846 4.27-23.551 6.982l-15.812 5.569c-.127.045-.251.092-.375.141-38.471 8.148-75.205 29.948-107.755 64.233-31.407 33.081-47.797 65.803-48.479 67.18-1.387 2.798-1.387 6.083 0 8.881.683 1.377 17.072 34.099 48.479 67.18 32.55 34.284 69.284 56.085 107.755 64.233.124.049.248.097.375.141l15.812 5.57c7.704 2.712 15.627 5.061 23.55 6.981 18.948 4.593 38.203 6.878 57.426 6.878 27.839 0 55.599-4.799 82.185-14.337l6.805-2.441c2.828-1.015 5.05-3.247 6.052-6.079 1.001-2.833.676-5.966-.887-8.532l-18.113-29.759c10.803-6.435 21.781-13.551 32.927-21.346 10.049-7.029 19.395-14.035 27.887-20.715 13.11 29.67 42.663 49.457 75.839 49.457h34.869c5.522 0 10-4.478 10-10v-18.44c0-20.935-7.774-40.942-21.891-56.339-6.293-6.864-13.597-12.547-21.594-16.893 7.997-4.345 15.301-10.028 21.594-16.892zm-165.005-107.019-12.035 19.774c-27.423-14.719-53.641-24.87-78.502-30.395 30.487-2.73 61.23.84 90.537 10.621zm0 247.824c-29.307 9.78-60.049 13.351-90.537 10.621 24.861-5.525 51.078-15.676 78.501-30.395zm-133.429-4.443c-45.726 0-88.547-20.599-127.273-61.223-22.952-24.076-37.622-48.486-43.062-58.253 5.393-9.7 19.872-33.816 42.684-57.844 38.819-40.888 81.768-61.62 127.651-61.62 96.392 0 201.483 92.933 229.521 119.47-28.038 26.538-133.13 119.47-229.521 119.47zm300.325-46.238v8.44h-24.869c-27.044 0-50.917-17.341-59.556-42.697 15.018-12.618 25.909-22.927 31.316-28.206 30.104 4.784 53.109 31.428 53.109 62.463zm-53.109-84c-5.407-5.279-16.299-15.589-31.318-28.208 8.639-25.363 32.489-42.695 59.558-42.695h24.869v8.44c0 31.036-23.005 57.679-53.109 62.463z"/><path d="m149.596 217.042c-5.522 0-10 4.478-10 10v15.873c0 5.522 4.478 10 10 10s10-4.478 10-10v-15.873c0-5.523-4.478-10-10-10z"/></g></g></svg>