<svg id="Capa_1" enable-background="new 0 0 512 512" height="512" viewBox="0 0 512 512" width="512" xmlns="http://www.w3.org/2000/svg"><g><g><g><path d="m222.937 210.552c-27.107 26.877-83.559 14.48-83.559 14.48s-12.503-55.973 14.604-82.849 83.559-14.48 83.559-14.48 12.503 55.972-14.604 82.849z" fill="#fff59b"/></g><g><path d="m50.062 302.39c27.107 26.877 83.559 14.48 83.559 14.48s12.503-55.973-14.604-82.849-83.559-14.48-83.559-14.48-12.503 55.973 14.604 82.849z" fill="#fff59b"/></g><g><path d="m222.937 395.873c-27.107 26.877-83.559 14.48-83.559 14.48s-12.503-55.973 14.604-82.849c27.107-26.877 83.559-14.48 83.559-14.48s12.503 55.972-14.604 82.849z" fill="#fff59b"/></g><g><path d="m289.063 311.027c27.107 26.877 83.559 14.48 83.559 14.48s12.503-55.973-14.604-82.849-83.559-14.48-83.559-14.48-12.503 55.972 14.604 82.849z" fill="#fff59b"/></g><g><path d="m461.938 402.865c-27.107 26.877-83.559 14.48-83.559 14.48s-12.503-55.973 14.604-82.849 83.559-14.48 83.559-14.48 12.503 55.973-14.604 82.849z" fill="#fff59b"/></g></g><g><g fill="#020288"><path d="m239.686 209.773c-2.522-.553-62.123-13.216-92.745 17.146-.148.147-.295.295-.441.443v-74.439c13.076-9.36 48.759-38.196 48.759-74.101 0-43.025-51.236-75.897-53.417-77.275-3.264-2.062-7.421-2.062-10.685 0-2.181 1.378-53.417 34.25-53.417 77.275 0 14.235 5.609 27.358 13.193 38.598-27.554-5.887-55.898.137-57.621.515-3.797.834-6.767 3.793-7.614 7.588-.56 2.505-13.355 61.714 17.322 92.13v.001c16.505 16.365 41.425 20.229 61.292 20.229 8.764 0 16.546-.753 22.187-1.517v84.479c-.146-.148-.293-.296-.441-.443-30.622-30.361-90.223-17.698-92.745-17.146-3.797.834-6.767 3.793-7.614 7.588-.56 2.505-13.355 61.714 17.322 92.131 16.505 16.364 41.426 20.229 61.293 20.229 8.764 0 16.545-.753 22.186-1.517v80.313c0 5.522 4.477 10 10 10s10-4.478 10-10v-173.795c5.64.764 13.42 1.516 22.186 1.516 19.866 0 44.79-3.867 61.293-20.229 30.677-30.417 17.882-89.626 17.322-92.131-.848-3.795-3.818-6.754-7.615-7.588zm-103.135-187.61c14.308 10.518 38.707 33.317 38.707 56.659 0 19.378-16.027 37.332-28.759 48.537v-37.388c0-5.522-4.477-10-10-10s-10 4.478-10 10v37.389c-12.733-11.206-28.759-29.16-28.759-48.537.001-25.196 27.095-47.985 38.811-56.66zm-11.582 194.267c-17.654 2.594-51.188 3.558-67.866-12.979v.001c-17.933-17.782-15.086-52.752-12.993-67.148 17.654-2.594 51.188-3.558 67.866 12.979 11.117 11.023 14.248 28.653 14.523 43.891v4.616c-.131 7.475-.868 14.086-1.53 18.64zm0 185.321c-17.654 2.591-51.188 3.558-67.867-12.979v.001c-17.933-17.781-15.086-52.751-12.993-67.147 17.654-2.594 51.188-3.558 67.866 12.979 11.117 11.023 14.248 28.653 14.523 43.891v4.616c-.13 7.474-.867 14.086-1.529 18.639zm90.927-106.462c-17.976 17.824-53.32 14.996-67.875 12.916-.66-4.557-1.392-11.148-1.522-18.593v-4.586c.274-15.243 3.403-32.879 14.523-43.904 17.977-17.824 53.321-14.997 67.875-12.916 2.095 14.445 4.903 49.332-13.001 67.083z"/><path d="m486.301 225.998c-.847-3.795-3.817-6.754-7.614-7.588-1.722-.377-30.067-6.404-57.621-.516 7.585-11.239 13.193-24.363 13.193-38.598 0-43.024-51.235-75.897-53.417-77.275-3.263-2.062-7.422-2.062-10.685 0-2.181 1.378-53.417 34.251-53.417 77.275 0 35.906 35.683 64.741 48.759 74.101v74.44c-.146-.148-.293-.296-.441-.443-30.623-30.359-90.223-17.699-92.745-17.146-3.797.834-6.767 3.793-7.614 7.588-.56 2.505-13.355 61.714 17.322 92.131v-.001c16.505 16.365 41.424 20.231 61.292 20.23 8.764 0 16.546-.753 22.187-1.517v73.321c0 5.522 4.477 10 10 10s10-4.478 10-10v-165.158c5.639.764 13.419 1.516 22.185 1.516 19.866 0 44.791-3.867 61.294-20.23 30.677-30.416 17.882-89.625 17.322-92.13zm-149.559-46.701c0-25.157 27.014-47.916 38.758-56.621 11.751 8.709 38.759 31.466 38.759 56.621 0 19.378-16.027 37.333-28.759 48.538v-37.389c0-5.522-4.477-10-10-10s-10 4.478-10 10v37.441c-13.469-11.976-28.758-30.113-28.758-48.59zm27.237 229.383c-14.565 2.081-49.903 4.903-67.875-12.915v-.001c-17.907-17.754-15.095-52.646-13.002-67.082 14.563-2.084 49.901-4.906 67.876 12.916 11.113 11.018 14.245 28.636 14.523 43.87v4.656c-.132 7.431-.863 14.008-1.522 18.556zm90.918-104.755c-17.975 17.824-53.318 14.995-67.875 12.917-.661-4.558-1.392-11.152-1.522-18.6v-4.57c.273-15.245 3.401-32.885 14.523-43.912 17.977-17.824 53.321-14.997 67.875-12.916 2.095 14.444 4.903 49.33-13.001 67.081z"/></g></g></g></svg>