<svg id="Capa_1" enable-background="new 0 0 512 512" height="512" viewBox="0 0 512 512" width="512" xmlns="http://www.w3.org/2000/svg"><g><g><path clip-rule="evenodd" d="m329.777 502c59.158-79.51 73.359-148.844 50.456-202.22h-201.086-129.938c-22.903 53.376-8.702 122.71 50.456 202.22h115.056z" fill="#fff59b" fill-rule="evenodd"/></g><path d="m473.179 51.278h-151.94v-2.075c0-17.659-14.366-32.025-32.024-32.025-5.077 0-9.879 1.195-14.147 3.311-4.637-11.973-16.276-20.489-29.875-20.489-13.589 0-25.219 8.519-29.849 20.494-4.276-2.119-9.086-3.317-14.172-3.317-17.658 0-32.024 14.366-32.024 32.025v24.15 71.154h-76.909c-18.362 0-33.301 14.938-33.301 33.3 0 17.496 13.564 31.872 30.728 33.192v23.48c-33.34 25.127-53.209 56.797-59.075 94.201-4.095 26.101-1.073 54.468 8.979 84.315 10.206 30.306 27.727 62.26 52.074 94.975 1.888 2.536 4.862 4.03 8.022 4.03h230.111c3.161 0 6.136-1.495 8.023-4.031 24.344-32.722 41.861-64.681 52.065-94.989 10.051-29.852 13.07-58.222 8.974-84.324-5.868-37.396-25.731-69.057-59.062-94.177v-23.48c17.163-1.319 30.728-15.696 30.728-33.192 0-18.362-14.938-33.3-33.301-33.3h-148.057v-41.481c3.715 1.511 7.773 2.351 12.024 2.351 5.087 0 9.897-1.198 14.172-3.317 4.63 11.975 16.26 20.494 29.849 20.494 13.599 0 25.238-8.516 29.874-20.488 4.269 2.116 9.07 3.311 14.147 3.311 17.658 0 32.024-14.366 32.024-32.025v-2.075h151.94c5.522 0 10-4.477 10-10s-4.476-9.998-9.998-9.998zm-94.098 280.479c7.229 46.07-11.557 101.396-54.362 160.243h-219.997c-42.809-58.833-61.6-114.151-54.374-160.221 5.245-33.439 23.792-61.732 55.126-84.094 2.63-1.877 4.191-4.909 4.191-8.14v-28.437h59.483v88.672h20v-88.672h130.628v28.437c0 3.231 1.562 6.263 4.191 8.14 31.325 22.355 49.868 50.641 55.114 84.072zm-41.878-167.25c7.334 0 13.301 5.966 13.301 13.3s-5.967 13.301-13.301 13.301h-244.964c-7.334 0-13.301-5.967-13.301-13.301s5.967-13.3 13.301-13.3zm-124.006-91.154c0 6.63-5.395 12.025-12.025 12.025s-12.024-5.395-12.024-12.025v-24.15c0-6.63 5.395-12.025 12.024-12.025 6.631 0 12.025 5.395 12.025 12.025zm44.021 17.206c0 6.615-5.395 11.997-12.025 11.997-6.614 0-11.996-5.382-11.996-11.997v-58.562c0-6.615 5.382-11.997 11.996-11.997 6.631 0 12.025 5.382 12.025 11.997zm44.021-17.206c0 6.63-5.395 12.025-12.024 12.025-6.614 0-11.996-5.395-11.996-12.025v-24.15c0-6.63 5.382-12.025 11.996-12.025 6.63 0 12.024 5.395 12.024 12.025z" fill="#020288"/></g></svg>