<svg id="Layer_1" enable-background="new 0 0 511.925 511.925" height="512" viewBox="0 0 511.925 511.925" width="512" xmlns="http://www.w3.org/2000/svg"><g><path clip-rule="evenodd" d="m292.393 165.183 26.177-16.789.733-.423-10.881-9.91c-9.206-8.384-9.879-22.776-1.494-31.982 8.384-9.206 22.776-9.879 31.982-1.494l65.482 59.637c9.206 8.384 9.878 22.776 1.494 31.982s-22.776 9.879-31.983 1.494l-6.249-5.691-4.434 4.434c-8.168 5.238-14.207 15.638-16.235 24.918l-1.038 3.874c11.536 10.598 18.816 23.214 19.53 37.3 16.336 6.345 35.435.309 44.825-13.848 23.503 11.563 52.185-5.009 53.921-31.131 11.981-.934 23.315-7.561 29.778-18.755 6.463-11.195 6.536-24.323 1.353-35.166 21.765-14.573 21.756-47.698 0-62.262 11.563-23.503-5.009-52.185-31.131-53.921-.934-11.981-7.561-23.315-18.755-29.778-11.195-6.463-24.323-6.536-35.166-1.353-14.574-21.766-47.698-21.755-62.262 0-23.503-11.563-52.185 5.009-53.92 31.131-11.981.934-23.315 7.561-29.778 18.755-6.463 11.195-6.535 24.323-1.353 35.166-9.751 6.69-16.202 17.841-16.406 30.51 15.888 4.93 30.158 18.122 41.524 35.777z" fill="#a4fbc4" fill-rule="evenodd"/><g fill="#020288"><path d="m159.243 255.307c3 4.687 9.234 5.976 13.816 3.019 4.649-2.981 6.001-9.167 3.02-13.816l-8.059-12.565c-2.982-4.649-9.168-6.002-13.816-3.019-4.649 2.981-6.001 9.167-3.02 13.816z"/><path d="m239.599 397.39-13.262-6.853c-4.907-2.533-10.939-.613-13.475 4.294-2.536 4.906-.613 10.939 4.293 13.475l13.262 6.853c4.806 2.511 10.928.662 13.475-4.294 2.536-4.907.613-10.939-4.293-13.475z"/><path d="m260.061 322.357-13.262-6.853c-4.907-2.533-10.939-.613-13.475 4.294-2.536 4.906-.613 10.939 4.293 13.475l13.262 6.853c4.806 2.511 10.928.662 13.475-4.294 2.536-4.907.613-10.94-4.293-13.475z"/><path d="m445.641 128.823c-13.956-3.743-29.511 2.073-46.3 17.273l-13.21-12.031 45.894-45.894c9.008-9.756-4.395-23.146-14.143-14.143l-46.555 46.554-14.534-13.237c7.678-12.513 10.927-31.682 8.679-40.069-1.43-5.334-6.909-8.502-12.248-7.071-5.31 1.423-8.471 6.863-7.09 12.174.624 3.332-1.191 14.091-4.713 21.56-13.158-8.541-30.986-6.564-41.888 5.406-12.118 13.305-11.152 33.989 2.153 46.109l1.216 1.107-11.955 7.667c-10.81-14.422-23.27-24.751-36.426-30.114-18.259-7.445-37.405-5.29-55.368 6.231-43.487 28.547-228.127 162.091-194.932 219.662 26.694 39.832 135.541-10.896 179.761-30.697-17.981 52.044-59.268 165.287-16.607 189.5 4.017 2.075 8.36 3.116 13.051 3.115 62.635-3.868 160.544-166.92 187.479-217.677 9.797-18.959 10.157-38.223 1.043-55.709-2.981-5.719-6.97-11.198-11.872-16.36 1.777-6.657 5.94-13.205 10.589-16.658 6.345 5.57 14.567 8.423 23.005 8.016 27.019-1.052 40.761-33.529 23.333-53.721 10.618-9.314 19.876-13.438 26.462-11.675 5.339 1.432 10.818-1.737 12.247-7.071 1.43-5.334-1.736-10.818-7.071-12.247zm-92.898 63.129c-4.804 4.378-8.952 10.171-11.895 16.547-4.315-2.956-8.989-5.741-14-8.331-5.32-2.748-10.676-5.092-15.927-6.975-2.053-7.245-5.124-14.664-9.176-22.13l16.466-10.56zm-331.687 147.257c-14.804-36.23 130.405-153.474 169.029-178.673l5.336 8.319c3 4.687 9.234 5.975 13.816 3.019 4.648-2.982 6-9.167 3.018-13.816l-5.605-8.739c1.12-.731 2.221-1.444 3.302-2.137 12.423-7.968 24.878-9.498 37.021-4.546 11.699 4.77 23.056 15.356 32.842 30.616 12.029 18.755 27.317 53.356-5.444 74.37-32.869 21.08-89.527 51.489-143.937 73.185l-6.324-9.861c-2.982-4.649-9.167-6.002-13.816-3.019-4.649 2.981-6.001 9.167-3.02 13.816l4.06 6.331c-58.068 20.955-84.957 19.434-90.278 11.135zm237.433 85.718c-45.401 56.59-72.52 70.979-81.933 66.115-24.914-23.161 15.464-137.473 33.675-184.493 29.495-14.858 56.044-29.976 74.935-42.092 17.964-11.521 27.907-28.024 28.757-47.725.009-.211.012-.424.02-.636 1.24.588 2.483 1.201 3.726 1.843 19.795 10.228 50.336 32.55 32.469 67.129-.589 1.141-1.196 2.303-1.82 3.486l-9.224-4.766c-12.028-5.618-20.72 11.217-9.18 17.769l8.78 4.536c-19.807 34.861-49.297 80.308-80.205 118.834zm140.003-235.456c-4.692 5.151-12.702 5.527-17.855.833l-65.481-59.636c-5.153-4.693-5.527-12.704-.834-17.856 4.703-5.164 12.716-5.518 17.855-.834l65.481 59.636c5.153 4.694 5.528 12.704.834 17.857z"/></g></g></svg>