<svg id="Layer_1" enable-background="new 0 0 512.001 512.001" height="512" viewBox="0 0 512.001 512.001" width="512" xmlns="http://www.w3.org/2000/svg"><g><path d="m113.001 125.969h-20v-30c-.492-13.254-19.513-13.244-20 0v30h-20c-5.523 0-10 4.477-10 10v35c.492 13.254 19.513 13.244 20 0v-25h40v25c.492 13.254 19.513 13.244 20 0v-35c0-5.523-4.477-10-10-10z" fill="#020288"/><g clip-rule="evenodd" fill="#ffbebc" fill-rule="evenodd"><path d="m379 415.969c29.718 0 31.782-20 61.5-20 10.971 0 18.173 2.726 24.389 6.165l.58-2.163 14.281-44.002h-450.163l9.454 48.266.644 2.405c8.315-5.213 16.293-10.67 31.816-10.67 29.717 0 31.782 20 61.5 20s31.782-20 61.5-20 31.783 20 61.5 20c29.718 0 31.783-20 61.5-20 29.717-.001 31.782 19.999 61.499 19.999z"/><path d="m28 165.968h170v90h-170z"/></g><g fill="#020288"><path d="m502.001 405.969c-11.884 0-17.819-3.678-25.253-8.356l34.765-107.115c.988-3.044.459-6.377-1.423-8.966-1.881-2.589-4.889-4.121-8.089-4.121h-30.001v-50c0-5.523-4.478-10-10-10h-39.999v-70c0-5.523-4.478-10-10-10h-100.001c-5.522 0-10 4.477-10 10v70h-40c-5.523 0-10 4.477-10 10v30.887l-32.612-11.74c-1.086-.391-2.232-.591-3.387-.591h-63v-30c0-5.523-4.477-10-10-10h-60c-5.523 0-10 4.477-10 10v30h-63.001c-2.989 0-5.821 1.337-7.721 3.645-1.9 2.308-2.667 5.344-2.093 8.277l28.167 143.808c-4.927 2.565-10.261 4.271-18.353 4.271-5.523 0-10 4.477-10 10s4.477 10 10 10c17.744 0 27.483-6.129 36.076-11.537 7.515-4.729 13.45-8.463 25.424-8.463 11.975 0 17.91 3.735 25.424 8.464 21.169 15.388 51.031 15.357 72.152 0 7.515-4.729 13.45-8.463 25.424-8.463 11.975 0 17.91 3.735 25.424 8.464 21.169 15.389 51.03 15.356 72.151 0 7.515-4.729 13.45-8.464 25.425-8.464s17.909 3.735 25.424 8.463c21.169 15.389 51.031 15.357 72.151 0 7.515-4.729 13.45-8.464 25.425-8.464 11.974 0 17.909 3.735 25.424 8.463 8.593 5.408 18.333 11.537 36.076 11.537 5.522 0 10-4.477 10-10s-4.477-9.999-9.999-9.999zm-50.001-128.558h-80v-40h80zm-130-120h80.001v60h-80.001zm-50 80h80v40h-46.908l-33.092-11.913zm-178.999-11.443h40v20h-40zm311.423 171.537c-7.515 4.729-13.45 8.463-25.424 8.463-11.975 0-17.909-3.735-25.424-8.463-21.169-15.389-51.032-15.357-72.152 0-7.515 4.729-13.45 8.463-25.424 8.463s-17.909-3.735-25.424-8.463c-21.169-15.389-51.031-15.357-72.152 0-7.515 4.729-13.45 8.463-25.424 8.463s-17.91-3.735-25.424-8.464c-15.472-11.385-40.414-15.999-60.912-6.369l-24.515-125.167h192.106l85.704 30.852c1.086.391 2.232.591 3.387.591h184.896l-29.582 91.145c-20.321-6.294-40.918-.676-54.236 8.949z"/><path d="m84.344 297.569c-1.062-5.42-6.315-8.951-11.736-7.891-5.42 1.062-8.953 6.316-7.891 11.736l1.959 10c1.037 5.454 6.45 8.969 11.736 7.891 5.42-1.062 8.953-6.316 7.891-11.736z"/><path d="m129.344 297.569c-1.061-5.42-6.315-8.954-11.735-7.892s-8.953 6.315-7.892 11.735l1.958 10c1.036 5.455 6.449 8.969 11.735 7.892 5.42-1.062 8.953-6.315 7.892-11.735z"/><path d="m179.344 297.569c-1.062-5.42-6.319-8.951-11.736-7.891-5.42 1.062-8.953 6.316-7.891 11.736l1.959 10c1.037 5.454 6.45 8.969 11.736 7.891 5.42-1.062 8.953-6.316 7.891-11.736z"/></g></g></svg>