<svg id="Capa_1" enable-background="new 0 0 510.076 510.076" height="512" viewBox="0 0 510.076 510.076" width="512" xmlns="http://www.w3.org/2000/svg"><g><g><path id="XMLID_426_" d="m202.665 460.027c-45.92-.002-88.607-21.967-114.187-58.756-41.272-59.358-29.552-140.293 26-185.593 230.037-165.465 208.854-150.229 210.251-151.233 34.784-24.964 82.71-16.507 107.202 17.621 24.697 34.414 16.792 82.504-17.622 107.202-44.683 32.066-72.559 83.741-74.567 138.23-2.735 74.199-62.877 132.529-137.071 132.529-.004 0-.002 0-.006 0z" fill="#ffbdbc"/></g><g fill="#020288"><path d="m472.552 52.913c-40.866-56.943-120.024-69.962-176.976-29.09-193.256 138.905-211.71 151.546-214.138 153.924-35.347 34.62-58.197 65.085-65.764 118.399-15.821 111.465 69.353 213.93 187.356 213.93 101.624 0 182.999-80.956 186.677-180.736 1.444-39.152 21.539-76.33 53.754-99.45 56.813-40.773 69.863-120.164 29.091-176.977zm-40.751 160.728c-37.424 26.858-60.4 69.403-62.079 114.962-3.68 99.823-93.535 176.795-196.575 158.872-44.946-7.82-83.764-32.353-109.299-69.078-49.8-71.621-35.887-170.878 31.672-225.969 7.564-6.174 125.091-90.04 211.718-152.357 47.852-34.341 114.723-23.35 149.066 24.504 34.342 47.853 23.35 114.723-24.503 149.066z"/><path d="m203.799 340.027c-22.056 0-40 17.944-40 40s17.944 40 40 40c22.057 0 40-17.944 40-40s-17.943-40-40-40zm0 60c-11.028 0-20-8.972-20-20s8.972-20 20-20 20 8.972 20 20-8.972 20-20 20z"/></g></g></svg>