<svg id="Capa_1" enable-background="new 0 0 510.026 510.026" height="512" viewBox="0 0 510.026 510.026" width="512" xmlns="http://www.w3.org/2000/svg"><g><g fill="#ffbdbc"><path id="XMLID_1102_" d="m195.011 120.013h135l-40-45 40-45h-135"/><path id="XMLID_1106_" d="m195.007 299.013 35.807 22 31.006-19.05-66.809-111.95-66.808 111.95 31.002 19.05z"/></g><g><path d="m508.358 494.504-165-250c-3.954-5.989-12.747-5.976-16.692 0l-45.945 69.614-75.708-126.863v-177.242c0-5.523-4.477-10-10-10s-10 4.477-10 10v177.243l-183.588 307.632c-3.972 6.657.833 15.125 8.587 15.125h490c7.938 0 12.737-8.855 8.346-15.509zm-480.733-4.491 167.387-280.486 167.387 280.486zm358.064 0-93.59-156.827 42.913-65.019 146.418 221.846z" fill="#020288"/></g></g></svg>