<svg id="Capa_1" enable-background="new 0 0 512 512" height="512" viewBox="0 0 512 512" width="512" xmlns="http://www.w3.org/2000/svg"><g><g><ellipse cx="256" cy="220.263" fill="#b2f0fb" rx="163.324" ry="162.71"/></g><g fill="#020288"><path d="m460.542 449.041c5.522 0 10-4.477 10-10s-4.478-10-10-10h-30.022v-31.778c0-10.662-7.11-19.695-16.838-22.607 40.544-41.025 63.375-96.054 63.375-154.392 0-58.841-22.999-114.159-64.759-155.763-41.751-41.594-97.259-64.501-156.298-64.501-59.04 0-114.547 22.907-156.298 64.5-41.761 41.604-64.759 96.921-64.759 155.763 0 58.339 22.831 113.367 63.375 154.393-9.727 2.912-16.837 11.945-16.837 22.607v31.778h-30.023c-5.523 0-10 4.477-10 10s4.477 10 10 10h10.358v42.959h-10.358c-5.523 0-10 4.477-10 10s4.477 10 10 10h409.084c5.522 0 10-4.477 10-10s-4.478-10-10-10h-10.357v-42.959zm-204.542-429.041c110.863 0 201.057 89.837 201.057 200.263 0 59.491-26.126 115.201-71.81 153.407h-258.495c-45.684-38.206-71.809-93.916-71.809-153.407 0-110.426 90.194-200.263 201.057-200.263zm-154.519 377.262c0-1.981 1.611-3.592 3.592-3.592h301.854c1.981 0 3.593 1.611 3.593 3.592v31.778h-309.039zm328.704 94.738h-348.369v-42.959h348.369z"/><path d="m246.426 244.729c5.523 0 10-4.477 10-10v-6.968c0-5.523-4.477-10-10-10s-10 4.477-10 10v6.968c0 5.522 4.477 10 10 10z"/><path d="m246.426 293.557c5.523 0 10-4.477 10-10v-6.968c0-5.523-4.477-10-10-10s-10 4.477-10 10v6.968c0 5.523 4.477 10 10 10z"/><path d="m267.413 265.659h6.981c5.522 0 10-4.477 10-10s-4.478-10-10-10h-6.981c-5.522 0-10 4.477-10 10s4.478 10 10 10z"/><path d="m218.456 265.659h6.981c5.523 0 10-4.477 10-10s-4.477-10-10-10h-6.981c-5.523 0-10 4.477-10 10s4.477 10 10 10z"/><path d="m270.576 188.755.671.277c18.4 7.61 32.958 21.8 40.993 39.957 1.602 3.619 5.187 5.953 9.145 5.953s7.543-2.334 9.145-5.954c8.034-18.155 22.592-32.345 40.989-39.954l.675-.279c3.74-1.545 6.181-5.192 6.182-9.239.001-4.046-2.437-7.695-6.176-9.243l-.677-.28c-18.401-7.611-32.959-21.801-40.993-39.956-1.602-3.62-5.187-5.954-9.145-5.954-3.957 0-7.543 2.334-9.145 5.953-8.035 18.156-22.593 32.346-40.995 39.957l-.675.279c-3.739 1.547-6.177 5.196-6.176 9.243.002 4.048 2.442 7.695 6.182 9.24zm50.809-34.362c6.907 9.915 15.597 18.419 25.665 25.121-10.069 6.702-18.758 15.206-25.665 25.12-6.907-9.913-15.598-18.418-25.666-25.12 10.069-6.702 18.758-15.207 25.666-25.121z"/></g></g></svg>