<svg id="Capa_1" enable-background="new 0 0 512.001 512.001" height="512" viewBox="0 0 512.001 512.001" width="512" xmlns="http://www.w3.org/2000/svg"><g><g clip-rule="evenodd" fill="#fff69b" fill-rule="evenodd"><path d="m134.511 457.001h242.979l-1.75-1.75-106.139-106.138c-7.481-7.48-19.721-7.48-27.202 0l-106.138 106.139z"/><path d="m123.395 160.8c18.79 55.206 71.254 95.201 132.606 95.201s113.816-39.996 132.606-95.201h-1.902c-31.579 0-33.773-10-65.352-10-31.578 0-33.773 10-65.352 10s-33.773-10-65.352-10-33.773 10-65.352 10z"/></g><g fill="#020288"><path d="m406.001 116v-52.714c11.64-4.127 20-15.249 20-28.286v-25c0-5.522-4.477-10-10-10h-320.001c-5.523 0-10 4.478-10 10v25c0 13.037 8.36 24.159 20 28.286v52.714c0 63.735 39.956 118.312 96.134 140.001-56.178 21.689-96.134 76.266-96.134 140v52.714c-11.64 4.127-20 15.249-20 28.286v25c0 5.522 4.477 10 10 10h320c5.523 0 10-4.478 10-10v-25c0-13.037-8.36-24.159-20-28.286v-52.714c0-63.734-39.956-118.311-96.133-140 56.178-21.689 96.134-76.266 96.134-140.001zm-300.001-96h300v15c0 5.514-4.486 10-10 10h-280c-5.514 0-10-4.486-10-10zm300.001 472.001h-300.001v-15c0-5.514 4.486-10 10-10h280c5.514 0 10 4.486 10 10v15zm-20-96v51h-260.001v-51c0-71.683 58.318-130 130-130 71.683 0 130.001 58.317 130.001 130zm-130-150c-71.683 0-130-58.318-130-130.001v-51h260v51c0 71.683-58.318 130.001-130 130.001z"/><path d="m218.253 191.751h-.007c-5.523 0-9.997 4.478-9.997 10s4.481 10 10.004 10 10-4.478 10-10-4.477-10-10-10z"/><path d="m317.253 178.752h-.007c-5.523 0-9.997 4.478-9.997 10s4.481 10 10.004 10 10-4.478 10-10-4.477-10-10-10z"/><path d="m240.012 421.503c5.523 0 10-4.478 10-10s-4.477-10-10-10h-.007c-5.523 0-9.997 4.478-9.997 10s4.482 10 10.004 10z"/></g></g></svg>