<svg id="Capa_1" enable-background="new 0 0 512.069 512.069" height="512" viewBox="0 0 512.069 512.069" width="512" xmlns="http://www.w3.org/2000/svg"><g><g><g><path d="m256.035 103.936-194.244 312.961h388.487zm17.603 276.583h-35.206v-35.206h35.206zm-35.206-69.955-8.044-95.623h51.294l-8.044 95.623z" fill="#e2c4ff"/></g></g><g fill="#020288"><path d="m505.309 403.162-211.686-341.064c-8.133-13.103-22.185-20.926-37.588-20.926s-29.456 7.823-37.588 20.926l-211.687 341.064c-8.618 13.885-9.019 30.701-1.074 44.983 7.925 14.247 22.378 22.752 38.662 22.752h423.372c16.284 0 30.737-8.505 38.662-22.752 7.946-14.282 7.545-31.099-1.073-44.983zm-16.404 35.26c-4.345 7.812-12.265 12.475-21.185 12.475h-423.371c-8.919 0-16.839-4.664-21.185-12.475-4.365-7.847-4.145-17.085.589-24.713l211.686-341.064c4.458-7.184 12.158-11.473 20.595-11.473 8.438 0 16.137 4.289 20.595 11.473l211.686 341.063c4.735 7.628 4.956 16.867.59 24.714z"/><path d="m281.682 204.94h-51.294c-2.798 0-5.468 1.172-7.361 3.232-1.894 2.06-2.838 4.818-2.604 7.606l8.044 95.623c.436 5.18 4.767 9.162 9.965 9.162h35.206c5.198 0 9.529-3.982 9.965-9.162l8.044-95.623c.234-2.788-.709-5.547-2.604-7.606-1.894-2.059-4.563-3.232-7.361-3.232zm-17.239 95.624h-16.817l-6.362-75.623h29.541z"/><path d="m273.638 335.314h-35.206c-5.523 0-10 4.477-10 10v35.206c0 5.523 4.477 10 10 10h35.206c5.523 0 10-4.477 10-10v-35.206c0-5.523-4.477-10-10-10zm-10 35.206h-15.206v-15.206h15.206z"/></g></g></svg>